<?xml version="1.0" encoding="utf-8"?>
<!-- Generator: Adobe Illustrator 26.5.0, SVG Export Plug-In . SVG Version: 6.00 Build 0)  -->
<svg version="1.1" id="Layer_1" xmlns="http://www.w3.org/2000/svg" xmlns:xlink="http://www.w3.org/1999/xlink" x="0px" y="0px"
	 viewBox="0 0 225 225" style="enable-background:new 0 0 225 225;" xml:space="preserve">
<style type="text/css">
	.st0{fill:#51B764;}
	.st1{fill:none;stroke:#FFFFFF;stroke-width:12;stroke-miterlimit:10;}
	.st2{fill:#FFFFFF;}
</style>
<g id="Layer_2_00000165951824907428695900000011971399801635944334_">
	<path class="st0" d="M154.8,210.9H70.2c-31,0-56.1-25.1-56.1-56.1V70.2c0-31,25.1-56.1,56.1-56.1h84.6c31,0,56.1,25.1,56.1,56.1
		v84.6C210.9,185.8,185.8,210.9,154.8,210.9z"/>
	<g>
		<circle class="st1" cx="112.4" cy="117.4" r="27.4"/>
		<circle class="st2" cx="61.4" cy="92.2" r="6.3"/>
		<path class="st1" d="M168.1,71.3h-26c-1.5-11.1-11-19.8-22.6-19.8h-13.6c-11.5,0-21.1,8.7-22.6,19.8H56.9
			c-8.9,0-16.2,7.3-16.2,16.2v62.3c0,8.9,7.3,16.2,16.2,16.2h111.2c8.9,0,16.2-7.3,16.2-16.2V87.5C184.3,78.6,177,71.3,168.1,71.3z"
			/>
	</g>
</g>
</svg>
